<svg xmlns="http://www.w3.org/2000/svg" xmlns:xlink="http://www.w3.org/1999/xlink" width="330" height="55" viewBox="0 0 330 55"><defs><style>.a{fill:none;}.b{clip-path:url(#a);}.c,.d,.e{fill:#2b2b30;}.c{opacity:0;}.d{stroke:rgba(0,0,0,0);}</style><clipPath id="a"><rect class="a" width="330" height="55"/></clipPath></defs><g class="b"><rect class="c" width="330" height="55"/><path class="d" d="M11859.317-1383.6a14.589,14.589,0,0,0,3.012-5.565c-2.161-.083-4.124-.161-5.2-.178-.688-.012-1.692.036-2.888.083-5.937.241-16.56.483-16.234-6.524.28-6.08,4.19-5.83,9.65-5.576,1.294.06,2.674.119,4.116.1,1.775-.029,4.067-.045,6.471-.061a26.868,26.868,0,0,0-4.021-2.851l-1.94-1.258c-3.643-2.653-10.086-9.889-8.405-18.294,1.69-8.458,8.748-14.232,16.067-13.141,3.968.59,7.156,2.372,8.98,5.019a9.458,9.458,0,0,1,1.4,7.487,9.387,9.387,0,0,1-4.523,6.482,9.362,9.362,0,0,1-7.637.581c-3.063-1.055-5.424-3.389-6.011-5.943a5.257,5.257,0,0,1,1.543-5.031c2.934-2.933,5.088-1.919,5.678-1.538a2.22,2.22,0,0,1,1.044,2.548c-.552,1.464-1.014,2.387-3.5,2.921-.266.057-.6.173-.656.4-.092.349.212,1.428,2.015,3.01a5.678,5.678,0,0,0,4.558.3,4.874,4.874,0,0,0,3.361-3.779c.683-3.079-.044-5.4-2.223-7.1-1.55-1.21-6.989-4.694-11.874,1.347-2.8,3.469-6.62,10.259-.65,16.741a34.6,34.6,0,0,0,5.648,4.575c2.9,2.044,6.039,4.253,8.05,7.468l.546-.008c2.4-.033,6.128.274,7.5.39s1.7.578,1.865,1.106c.66,2.1-4.617,1.324-8.632,1.149a13.769,13.769,0,0,1,.613,2.34c2.105-.1,4.125-.258,5.16-.241,1.442.027,2.3.334,2.352,1.121.042.73-.265,1.267-1.567,1.383-.967.086-3.3.179-5.723.221,0,.148,0,.3,0,.449-.01.735-.053,1.422-.125,2.064l.241-.008c4.176-.125,7.117-.724,6.98,1.118-.051.709-.71,1.118-2.453,1.323-.71.084-2.794.046-5.219-.031-1.711,6.3-6.641,6.809-6.7,6.817l-2.19.188Zm-3.942-9.189c-.045,1.484,3.647,1.638,7.319,1.547a10.064,10.064,0,0,0-.147-2.708c-1.439-.056-2.784-.139-3.911-.139C11856.7-1394.087,11855.405-1393.841,11855.375-1392.787Zm0-5.034c-.052,1.488,3.171,1.6,6.452,1.551a13.684,13.684,0,0,0-1.452-2.667c-.627-.026-1.218-.044-1.76-.044C11856.7-1398.98,11855.405-1398.754,11855.375-1397.821Z" transform="translate(-11838 1437)"/><path class="e" d="M152.813,267.067l.135-.837h-.565l-.135.837a.989.989,0,0,1-.967.744.691.691,0,0,1-.754-.744l1.022-6.185a2.043,2.043,0,0,0-2.232-2.3,4.537,4.537,0,0,0-2.8,1.372l-.753.791a2.129,2.129,0,0,0-2.231-2.163A4.369,4.369,0,0,0,140.71,260l-.672.675a1.769,1.769,0,0,0-1.963-1.884,2.654,2.654,0,0,0-2.609,1.976l-.134.838h.591l.135-.838a.969.969,0,0,1,.968-.744.67.67,0,0,1,.726.744l-1.291,7.977h2.26l1.1-6.721.484-.534a4.07,4.07,0,0,1,2.26-1.466.848.848,0,0,1,.914.977l-1.264,7.744h2.26l1.1-6.721.512-.534c.86-.861,1.613-1.466,2.258-1.466a.848.848,0,0,1,.915.977l-1,6.069a1.8,1.8,0,0,0,1.964,1.977A2.6,2.6,0,0,0,152.813,267.067Zm26.4-.093.135-.837h-.593l-.134.837a.967.967,0,0,1-.969.744.658.658,0,0,1-.726-.744l1.317-8.046h-2.259l-.995,6.046-.78.885c-1.049,1.208-1.83,1.674-2.474,1.674a.919.919,0,0,1-1-1.07l.941-5.79a1.783,1.783,0,0,0-1.963-1.977,2.653,2.653,0,0,0-2.61,1.977l-.135.838h.593l.135-.838a.967.967,0,0,1,.968-.745.671.671,0,0,1,.726.745l-.942,5.93a2.126,2.126,0,0,0,2.314,2.441,4.44,4.44,0,0,0,3.281-1.93l.726-.837c-.027.186-.135.7-.135.7a1.8,1.8,0,0,0,1.963,1.977A2.654,2.654,0,0,0,179.209,266.974Zm5.939-5.628.108-.582a1.8,1.8,0,0,0-1.964-1.976,2.631,2.631,0,0,0-2.609,1.976l-.134.838h.592l.135-.838a.968.968,0,0,1,.968-.744.659.659,0,0,1,.727.744l-1.291,7.977h2.26l.994-6.023,1.99-2.186a1.326,1.326,0,0,0,1.346.838,1.882,1.882,0,0,0,1.856-1.4,1.273,1.273,0,0,0-1.372-1.42,3.152,3.152,0,0,0-2.286,1.4Zm9.573,5.721.134-.837h-.592l-.134.837a.946.946,0,0,1-.968.744.67.67,0,0,1-.726-.744l1.318-8.046h-2.26l-1.317,8.046a1.762,1.762,0,0,0,1.936,1.977A2.63,2.63,0,0,0,194.721,267.067Zm-2.9-10.6a.943.943,0,0,0,1.048,1.023,1.355,1.355,0,0,0,1.345-1.023.931.931,0,0,0-1.023-1.046A1.4,1.4,0,0,0,191.816,256.463Zm17.159,3.488.162-.931h-3.093l.376-2.418h-2.26l-.376,2.418h-2.366l-.161.931h2.366l-1.156,7.116a1.762,1.762,0,0,0,1.936,1.977,2.63,2.63,0,0,0,2.609-1.977l.135-.837h-.592l-.134.837a.968.968,0,0,1-.969.744.671.671,0,0,1-.726-.744l1.156-7.116Zm13.045,7.023.135-.837h-.592l-.135.837a.967.967,0,0,1-.968.744.658.658,0,0,1-.726-.744l1.317-8.046h-2.258l-1,6.046-.78.885c-1.049,1.208-1.829,1.674-2.474,1.674a.919.919,0,0,1-1-1.07l.941-5.79a1.783,1.783,0,0,0-1.963-1.977,2.654,2.654,0,0,0-2.609,1.977l-.134.838h.592l.135-.838a.967.967,0,0,1,.968-.745.671.671,0,0,1,.726.745l-.941,5.93a2.125,2.125,0,0,0,2.312,2.441,4.44,4.44,0,0,0,3.281-1.93l.727-.837c-.027.186-.135.7-.135.7a1.8,1.8,0,0,0,1.963,1.977A2.652,2.652,0,0,0,222.02,266.974Zm4.467.7c.134-.651-.431-1.209-1.21-1.209a1.661,1.661,0,0,0-1.615,1.209,1.05,1.05,0,0,0,.915,1.187,4.528,4.528,0,0,1-1.883,1.814l.189.3C225.707,269.719,226.353,268.439,226.487,267.672Zm24.924-.6.134-.837h-.565l-.135.837a.99.99,0,0,1-.968.744.69.69,0,0,1-.753-.744l1.021-6.185a2.043,2.043,0,0,0-2.231-2.3,4.532,4.532,0,0,0-2.8,1.372l-.753.791a2.129,2.129,0,0,0-2.231-2.163A4.368,4.368,0,0,0,239.308,260l-.672.675a1.769,1.769,0,0,0-1.963-1.884,2.653,2.653,0,0,0-2.609,1.976l-.135.838h.591l.135-.838a.969.969,0,0,1,.969-.744.67.67,0,0,1,.726.744l-1.29,7.977h2.259l1.1-6.721.483-.534a4.072,4.072,0,0,1,2.26-1.466.848.848,0,0,1,.914.977l-1.264,7.744h2.259l1.1-6.721.512-.534c.861-.861,1.613-1.466,2.259-1.466a.848.848,0,0,1,.915.977l-1,6.069a1.8,1.8,0,0,0,1.964,1.977A2.6,2.6,0,0,0,251.411,267.067Zm26.394-.093.135-.837h-.592l-.134.837a.968.968,0,0,1-.969.744.658.658,0,0,1-.726-.744l1.317-8.046h-2.259l-1,6.046-.78.885c-1.049,1.208-1.829,1.674-2.474,1.674a.919.919,0,0,1-1-1.07l.942-5.79a1.783,1.783,0,0,0-1.963-1.977,2.654,2.654,0,0,0-2.61,1.977l-.134.838h.592l.135-.838a.968.968,0,0,1,.969-.745.67.67,0,0,1,.726.745l-.941,5.93a2.125,2.125,0,0,0,2.313,2.441,4.437,4.437,0,0,0,3.281-1.93l.726-.837c-.026.186-.133.7-.133.7a1.8,1.8,0,0,0,1.963,1.977A2.652,2.652,0,0,0,277.806,266.974Zm5.94-5.628.108-.582a1.8,1.8,0,0,0-1.963-1.976,2.631,2.631,0,0,0-2.609,1.976l-.134.838h.591l.135-.838a.968.968,0,0,1,.968-.744.659.659,0,0,1,.726.744l-1.291,7.977h2.26l.995-6.023,1.991-2.186a1.323,1.323,0,0,0,1.344.838,1.882,1.882,0,0,0,1.856-1.4,1.271,1.271,0,0,0-1.371-1.42,3.152,3.152,0,0,0-2.287,1.4Zm9.572,5.721.134-.837h-.591l-.135.837a.946.946,0,0,1-.968.744.671.671,0,0,1-.727-.744l1.318-8.046h-2.26l-1.318,8.046a1.763,1.763,0,0,0,1.937,1.977A2.629,2.629,0,0,0,293.318,267.067Zm-2.9-10.6a.944.944,0,0,0,1.05,1.023,1.358,1.358,0,0,0,1.346-1.023.932.932,0,0,0-1.023-1.046A1.406,1.406,0,0,0,290.413,256.463Zm25.9,4.883.108-.582a1.8,1.8,0,0,0-1.964-1.976,2.63,2.63,0,0,0-2.609,1.976l-.135.838h.591l.135-.838a.97.97,0,0,1,.968-.744.658.658,0,0,1,.726.744l-1.291,7.977H315.1l1-6.023,1.99-2.186a1.324,1.324,0,0,0,1.345.838,1.882,1.882,0,0,0,1.856-1.4,1.273,1.273,0,0,0-1.372-1.42,3.149,3.149,0,0,0-2.286,1.4Zm-96.35-3.791.168-.986h-6.189l-.168.986Zm112.074,8.675-.135.837a.991.991,0,0,1-.969.745.692.692,0,0,1-.753-.745l1.237-7.534a.9.9,0,0,0-.995-.977,1.321,1.321,0,0,0-1.266.977s-.6,4.053-.705,4.472l-.328,2.11a3.229,3.229,0,0,1-2.6,1.595c-1.589,0-2.61-1.721-2.235-3.883.017-.1.037-.2.058-.3.651-2.41,2.123-3.029,2.853-3.025s1,.862,1.086,1.542c.014.1.025.2.031.3a.018.018,0,0,0,0-.006c0,.006,0,.014,0,.019a1.023,1.023,0,0,0-.846-.465,2.127,2.127,0,0,0-1.75,1.941,2.727,2.727,0,0,0-.038.391c0,.035,0,.064.006.1a1.972,1.972,0,0,0,.015.257,1.216,1.216,0,0,0,1.127,1.18,1.736,1.736,0,0,0,1.387-.945c.01-.014.019-.028.029-.043a2.737,2.737,0,0,0,.171-.349,4.981,4.981,0,0,0,.246-.722c.021-.1.039-.19.056-.278a7.114,7.114,0,0,0,.143-1.749,5.031,5.031,0,0,0-.3-1.354,2.478,2.478,0,0,0-.117-.249h0l0,0a2.254,2.254,0,0,0-1.446-1.1,2.5,2.5,0,0,0-2.241.576l.118-.108a6.864,6.864,0,0,0-2.568,4.362c-.458,2.883.942,5.255,3.2,5.255a4.708,4.708,0,0,0,3.442-2.023,1.766,1.766,0,0,0,1.937,2.023,2.6,2.6,0,0,0,2.582-1.977l.135-.837Zm-68.071,0-.135.837a.989.989,0,0,1-.968.745.693.693,0,0,1-.754-.745l1.237-7.534a.9.9,0,0,0-.995-.977,1.32,1.32,0,0,0-1.265.977s-.6,4.053-.705,4.472l-.328,2.11a3.229,3.229,0,0,1-2.6,1.595c-1.587,0-2.609-1.721-2.232-3.883.015-.1.036-.2.058-.3.651-2.41,2.123-3.029,2.854-3.025s1,.862,1.086,1.542c.013.1.023.2.03.3l-.005-.006a.177.177,0,0,1,0,.019,1.02,1.02,0,0,0-.846-.465,2.124,2.124,0,0,0-1.748,1.941,2.477,2.477,0,0,0-.039.391c0,.035.005.064.006.1a1.835,1.835,0,0,0,.016.257,1.213,1.213,0,0,0,1.126,1.18,1.735,1.735,0,0,0,1.387-.945c.01-.014.02-.028.029-.043a2.7,2.7,0,0,0,.171-.349,4.92,4.92,0,0,0,.246-.722c.022-.1.04-.19.057-.278a7.184,7.184,0,0,0,.143-1.749,5.065,5.065,0,0,0-.3-1.354,2.648,2.648,0,0,0-.118-.249h0l0,0a2.254,2.254,0,0,0-1.445-1.1,2.5,2.5,0,0,0-2.241.576l.117-.108a6.866,6.866,0,0,0-2.567,4.362c-.457,2.883.942,5.255,3.2,5.255a4.709,4.709,0,0,0,3.442-2.023,1.766,1.766,0,0,0,1.938,2.023,2.6,2.6,0,0,0,2.581-1.977l.135-.837Zm-98.629,0-.135.837a.99.99,0,0,1-.968.745.693.693,0,0,1-.754-.745l1.237-7.534a.9.9,0,0,0-.994-.977,1.319,1.319,0,0,0-1.265.977s-.6,4.053-.707,4.472l-.327,2.11a3.23,3.23,0,0,1-2.6,1.595c-1.586,0-2.609-1.721-2.233-3.883.016-.1.036-.2.058-.3.651-2.41,2.122-3.029,2.853-3.025s1,.862,1.086,1.542c.014.1.024.2.031.3l-.005-.006c0,.006,0,.014,0,.019a1.021,1.021,0,0,0-.845-.465,2.127,2.127,0,0,0-1.749,1.941,2.744,2.744,0,0,0-.038.391c0,.035,0,.064.006.1a2.3,2.3,0,0,0,.015.257,1.216,1.216,0,0,0,1.126,1.18,1.737,1.737,0,0,0,1.387-.945l.029-.043a2.638,2.638,0,0,0,.171-.349,5.069,5.069,0,0,0,.246-.722c.02-.1.038-.19.056-.278a7.1,7.1,0,0,0,.143-1.749,5.03,5.03,0,0,0-.3-1.354c-.037-.085-.074-.17-.118-.249h0l0,0a2.251,2.251,0,0,0-1.445-1.1,2.5,2.5,0,0,0-2.241.576l.119-.108a6.862,6.862,0,0,0-2.568,4.362c-.457,2.883.942,5.255,3.2,5.255a4.714,4.714,0,0,0,3.443-2.023,1.765,1.765,0,0,0,1.937,2.023,2.6,2.6,0,0,0,2.581-1.977l.135-.837Zm143.431-6.612v0a5.043,5.043,0,0,1,.379,4.557c-.692,2.068-2.2,3.483-3.6,3.517h-.025c-.046,0-.093,0-.138,0l.01-.01c-1.515-.1-2.49-1.78-2.1-3.874a5.048,5.048,0,0,1,.8-2,2.7,2.7,0,0,1,2.105-1.339c.508.01,1.083.43,1.115,1.846a1.012,1.012,0,0,0-.822-.465,1.188,1.188,0,0,0-.321.045,2.287,2.287,0,0,0-1.467,1.9,2.406,2.406,0,0,0-.027.573c0,.055,0,.11.007.161a.112.112,0,0,0,0,.021c0,.007,0,.013,0,.019a1.742,1.742,0,0,0,.07.3,1.465,1.465,0,0,0,.515.709,1.717,1.717,0,0,0,.241.11l.026.009a1.987,1.987,0,0,0,.262.036s.185-.016.249-.03a.918.918,0,0,0,.1-.026,2.143,2.143,0,0,0,.889-.669l0,0c.048-.065.1-.131.139-.2a5.238,5.238,0,0,0,.464-1.116c.006-.029.094-.4.113-.508.007-.034.074-.5.085-.625a6.382,6.382,0,0,0,.034-.908,5.156,5.156,0,0,0-.276-1.37,2.281,2.281,0,0,0-2.99-1.359,6.481,6.481,0,0,0-3.829,4.88c-.458,2.883,1.291,5.231,3.872,5.231,2.61,0,4.956-2.345,5.44-5.228A4.776,4.776,0,0,0,308.769,259.618Zm36.25-8.554a2.912,2.912,0,0,0-4.175,0,3.241,3.241,0,0,0-.709,2.178,3.2,3.2,0,0,0,.726,2.169A2.881,2.881,0,0,0,345,255.4a3.163,3.163,0,0,0,.726-2.161A3.239,3.239,0,0,0,345.019,251.065Zm-.83,3.622a1.529,1.529,0,0,1-2.524,0,2.6,2.6,0,0,1-.371-1.444,2.676,2.676,0,0,1,.363-1.46,1.546,1.546,0,0,1,2.541,0,2.631,2.631,0,0,1,.372,1.46A2.551,2.551,0,0,1,344.189,254.686Zm5.892-4.408h-3.448v5.911h1.079v-2.627h1.98v-.9h-1.98v-1.452h2.368Zm8.158,0h-1.08v4.641h-.017c-.058-.115-.1-.2-.129-.259l-2.42-4.382h-1.616v5.911h1.08v-4.7h.017a2.4,2.4,0,0,0,.112.216l2.2,3.794a1.345,1.345,0,0,0,1.219.752,1.731,1.731,0,0,0,.639-.13Zm4.716,4.978H360.51v-1.693h1.979v-.9H360.51v-1.452h2.368v-.934H359.43v5.911h3.526Zm7.849-4.978-1.038,4.036-.1.389h-.017l-1.305-4.425h-1.262l-1.158,4.036q-.086.3-.1.389H365.8l-1.193-4.425h-1.227l1.572,5.151a1.26,1.26,0,0,0,1.383.847l1.339-4.425,1.063,3.578q.251.847,1.443.847l1.729-6Zm8.132,0h-4.468v.934h3.068l-2.964,3.932a1.114,1.114,0,0,0-.26.657.972.972,0,0,0,.087.389h4.528v-.933h-3.146l3.154-4.209Zm4.375,4.978h-2.446v-1.693h1.979v-.9h-1.979v-1.452h2.368v-.934h-3.448v5.911h3.526Zm3.943-4.978h-1.029l-2.445,5.911,1.158-.008.588-1.495h2.281l.587,1.5h1.21Zm-1.348,3.474.769-2,.777,2Zm7.842,1.5H391.3v-4.978h-1.08v5.911h3.526Zm3.829-4.978h-1.028L394.1,256.19l1.158-.008.588-1.495h2.281l.588,1.5h1.209Zm-1.347,3.474.769-2,.778,2Zm9.578-3.474h-1.08v4.641h-.017l-.129-.259-2.42-4.382h-1.616v5.911h1.079v-4.7h.017c.029.064.066.135.113.216l2.2,3.794a1.344,1.344,0,0,0,1.218.752,1.731,1.731,0,0,0,.64-.13Zm5.167.614a3.461,3.461,0,0,0-2.307-.709,8.686,8.686,0,0,0-1.763.156v5.816a8.752,8.752,0,0,0,1.572.13,3.54,3.54,0,0,0,2.464-.812,3.044,3.044,0,0,0,.942-2.385A2.7,2.7,0,0,0,410.975,250.893Zm-.769,3.819a1.926,1.926,0,0,1-1.538.639,3.053,3.053,0,0,1-.683-.069v-4.087a3.553,3.553,0,0,1,.794-.078,1.912,1.912,0,0,1,1.435.523,2,2,0,0,1,.51,1.456A2.417,2.417,0,0,1,410.206,254.712Zm-257.841-10.6V227.872H147.99l-3.711,7.73a4.336,4.336,0,0,0-.356.927h-.048l-4.162-8.657h-4.4v16.244h2.9V230.679h.047a2.3,2.3,0,0,0,.19.569l3.638,7.445c.761,1.57,1.333,1.951,2.5,1.951l4.637-9.371a2.68,2.68,0,0,0,.19-.619h.048v13.462Zm13.556-6.468c0-3.306-1.973-5.685-5.4-5.685-3.639,0-5.518,2.783-5.518,6.232a5.805,5.805,0,0,0,6.089,6.184,10.553,10.553,0,0,0,4.092-.88l-.9-2.212a8.035,8.035,0,0,1-3.019.618,2.854,2.854,0,0,1-3.188-2.687h7.682A11.661,11.661,0,0,0,165.922,237.648Zm-2.949-.667h-4.9a2.547,2.547,0,0,1,2.474-2.664A2.4,2.4,0,0,1,162.972,236.981Zm15.936,7.135V236.2c0-3.281-2.283-4.234-5.185-4.234a17.059,17.059,0,0,0-5.4,1.19,15.363,15.363,0,0,1,.166,1.664v9.3h2.854v-8.633a5,5,0,0,0-.048-.5,7.059,7.059,0,0,1,2.4-.523,2.085,2.085,0,0,1,2.355,2.189v7.468Zm10.37-.237-.786-2.307a6.516,6.516,0,0,1-2.116.475c-.713,0-1.094-.286-1.094-1.022V234.7h3.33v-2.474h-3.33v-3.258h-2.855v3.306l-1.355.072V234.6l1.355.072v6.563c0,2.308,1.5,3.307,3.663,3.307A9.8,9.8,0,0,0,189.278,243.879Zm11.606-.428a12.957,12.957,0,0,1-.166-1.5v-6.114c0-2.758-1.9-3.876-4.448-3.876a11.778,11.778,0,0,0-4.684,1.023l.975,2.164a8.88,8.88,0,0,1,3.306-.713c.713,0,2,.1,2,1.093,0,2.07-7.374.429-7.374,5.234,0,2.782,3.045,3.615,5.327,3.615A17.5,17.5,0,0,0,200.884,243.451Zm-2.973-1.783a6.852,6.852,0,0,1-2.069.331c-1.022,0-2.211-.214-2.211-1.451,0-1.711,3.259-1.331,4.233-2.258v2.926A3.8,3.8,0,0,0,197.91,241.668Zm10.822,2.282-.665-2.237a2.457,2.457,0,0,1-.9.262c-.452,0-.572-.357-.572-.738V226.659h-2.854V241.9a2.307,2.307,0,0,0,2.616,2.474A8.075,8.075,0,0,0,208.732,243.95Zm20.763.166V227.848h-2.973v6.566h-7.159v-6.566h-2.972v16.268h2.972v-7.23h7.159v7.23Zm13.557-6.468c0-3.306-1.973-5.685-5.4-5.685-3.639,0-5.518,2.783-5.518,6.232a5.8,5.8,0,0,0,6.088,6.184,10.546,10.546,0,0,0,4.091-.88l-.9-2.212a8.04,8.04,0,0,1-3.021.618,2.855,2.855,0,0,1-3.188-2.687h7.683A11.657,11.657,0,0,0,243.052,237.648Zm-2.948-.667h-4.9a2.547,2.547,0,0,1,2.474-2.664A2.4,2.4,0,0,1,240.1,236.981Zm15.268,6.47a12.958,12.958,0,0,1-.166-1.5v-6.114c0-2.758-1.9-3.876-4.448-3.876a11.78,11.78,0,0,0-4.685,1.023l.975,2.164a8.882,8.882,0,0,1,3.306-.713c.713,0,2,.1,2,1.093,0,2.07-7.373.429-7.373,5.234,0,2.782,3.044,3.615,5.327,3.615A17.51,17.51,0,0,0,255.372,243.451Zm-2.973-1.783a6.866,6.866,0,0,1-2.07.331c-1.022,0-2.211-.214-2.211-1.451,0-1.711,3.259-1.331,4.233-2.258v2.926A3.679,3.679,0,0,0,252.4,241.668Zm10.82,2.282-.664-2.237a2.462,2.462,0,0,1-.9.262c-.452,0-.571-.357-.571-.738V226.659h-2.855V241.9a2.308,2.308,0,0,0,2.616,2.474A8.063,8.063,0,0,0,263.22,243.95Zm8.921-.071-.787-2.307a6.526,6.526,0,0,1-2.116.475c-.714,0-1.1-.286-1.1-1.022V234.7h3.331v-2.474h-3.331v-3.258h-2.854v3.306l-1.356.072V234.6l1.356.072v6.563c0,2.308,1.5,3.307,3.663,3.307A9.815,9.815,0,0,0,272.141,243.879Zm12.248.237v-7.944c0-2.639-1.4-4.209-4.067-4.209a8.919,8.919,0,0,0-3.52.786v-6.089h-2.853v17.457H276.8v-8.8a5.613,5.613,0,0,1,2.735-.88,1.97,1.97,0,0,1,2,2.164v7.515Zm18.6-13.7v-2.57H293.5v16.268h2.973v-7.23h5.445v-2.473h-5.445v-4Zm13.556,7.753c0-3.568-2.331-6.208-5.97-6.208s-5.969,2.663-5.969,6.208,2.33,6.207,5.969,6.207S316.544,241.738,316.544,238.171Zm-3.164.024c0,1.807-.689,3.734-2.806,3.734s-2.806-1.927-2.806-3.734.69-3.758,2.806-3.758S313.38,236.411,313.38,238.194Zm16.078,4.993a15.265,15.265,0,0,1-.167-1.663v-9.3h-2.854v8.634a4.9,4.9,0,0,0,.048.5,7.017,7.017,0,0,1-2.4.524,2.084,2.084,0,0,1-2.353-2.188v-7.469h-2.854v7.92c0,3.283,2.283,4.234,5.185,4.234A17.043,17.043,0,0,0,329.458,243.188Zm13.437.928V236.2c0-3.281-2.283-4.234-5.184-4.234a17.069,17.069,0,0,0-5.4,1.19,15.255,15.255,0,0,1,.168,1.664v9.3h2.855v-8.633a4.849,4.849,0,0,0-.05-.5,7.06,7.06,0,0,1,2.4-.523,2.085,2.085,0,0,1,2.355,2.189v7.468Zm13.438-.618s-.142-1.071-.142-1.594V226.659h-2.853V232.6a5.8,5.8,0,0,0-2.665-.642c-3.591,0-5.446,2.877-5.446,6.017a6.208,6.208,0,0,0,6.493,6.4A14.55,14.55,0,0,0,356.333,243.5Zm-2.948-1.808a4.718,4.718,0,0,1-1.641.214c-2.285,0-3.329-1.64-3.329-3.781,0-1.973.807-3.686,2.973-3.686a3.205,3.205,0,0,1,1.95.57v6.209A4.348,4.348,0,0,0,353.385,241.69Zm15.72,1.761a12.925,12.925,0,0,1-.166-1.5v-6.114c0-2.758-1.9-3.876-4.447-3.876a11.781,11.781,0,0,0-4.686,1.023l.974,2.164a8.889,8.889,0,0,1,3.306-.713c.714,0,2,.1,2,1.093,0,2.07-7.373.429-7.373,5.234,0,2.782,3.044,3.615,5.328,3.615A17.5,17.5,0,0,0,369.1,243.451Zm-2.973-1.783a6.87,6.87,0,0,1-2.069.331c-1.023,0-2.212-.214-2.212-1.451,0-1.711,3.258-1.331,4.233-2.258v2.926A3.68,3.68,0,0,0,366.132,241.668Zm13.341,2.211-.785-2.307a6.521,6.521,0,0,1-2.115.475c-.715,0-1.1-.286-1.1-1.022V234.7h3.331v-2.474h-3.331v-3.258h-2.854v3.306l-1.355.072V234.6l1.355.072v6.563c0,2.308,1.5,3.307,3.663,3.307A9.789,9.789,0,0,0,379.473,243.879Zm5.233-15.721a1.726,1.726,0,0,0-1.759-1.688,1.67,1.67,0,0,0-1.713,1.688,1.623,1.623,0,0,0,1.713,1.663A1.676,1.676,0,0,0,384.706,228.157Zm-.285,15.958V232.224h-2.854v11.892Zm14.6-5.945c0-3.568-2.331-6.208-5.97-6.208s-5.969,2.663-5.969,6.208,2.329,6.207,5.969,6.207S399.025,241.738,399.025,238.171Zm-3.164.024c0,1.807-.689,3.734-2.806,3.734s-2.807-1.927-2.807-3.734.69-3.758,2.807-3.758S395.861,236.411,395.861,238.194Zm16.078,5.922V236.2c0-3.281-2.282-4.234-5.185-4.234a17.06,17.06,0,0,0-5.4,1.19,15.358,15.358,0,0,1,.167,1.664v9.3h2.854v-8.633c0-.166-.048-.5-.048-.5a7.057,7.057,0,0,1,2.4-.523,2.085,2.085,0,0,1,2.355,2.189v7.468Z" transform="translate(-88.945 -221.186)"/></g></svg>